<svg width="202" height="512" viewBox="0 0 202 512" fill="none" xmlns="http://www.w3.org/2000/svg">
<path d="M201.47 231.538V512H23.2428V398.469C11.1999 403.516 11.6104 392.881 16.8849 377.515C16.4292 378.11 16.1741 378.438 16.1741 378.438C-16.1791 398.803 7.37489 347.791 23.249 317.368V225.273C23.249 225.273 46.2196 251.558 69.5822 225.273C92.9449 198.992 201.47 231.538 201.47 231.538ZM75.0307 184.532C75.6997 185.365 76.5472 186.037 77.5107 186.498C78.4742 186.96 79.5291 187.199 80.5974 187.198H94.738C94.1615 187.199 93.5967 187.035 93.11 186.726C92.6232 186.417 92.2348 185.975 91.9901 185.453C82.6714 165.633 81.0573 148.305 87.2042 133.945C95.4407 114.712 114.519 108.154 115.328 107.893C115.945 107.687 116.611 107.684 117.23 107.885C117.848 108.085 118.386 108.479 118.764 109.008C119.137 109.537 119.332 110.172 119.319 110.819C119.306 111.467 119.086 112.093 118.692 112.607C110.057 123.909 117.531 131.972 118.485 132.93C143.581 159.458 122.9 185.809 122.693 186.071C122.408 186.425 122.047 186.711 121.636 186.907C121.226 187.103 120.777 187.205 120.322 187.205H140.881C142.237 187.206 143.565 186.821 144.71 186.094C145.855 185.367 146.769 184.328 147.345 183.101C169.314 136.405 173.122 95.5687 158.631 61.7537C139.227 16.4328 94.2761 1.00313 92.377 0.367341C90.9281 -0.116406 89.3623 -0.122524 87.9097 0.349886C86.4571 0.822296 85.1943 1.74831 84.3072 2.99176C82.477 5.53697 82.5469 8.98133 84.4378 11.471C104.781 38.1123 87.1651 57.1016 84.9306 59.3433C25.7932 121.841 74.5317 183.908 75.0307 184.532Z" fill="black"/>
</svg>
