<svg width="480" height="288" viewBox="0 0 480 288" fill="none" xmlns="http://www.w3.org/2000/svg">
<path d="M432 0H48C12.784 0 0 28.704 0 48V240C0 275.216 28.704 288 48 288H432C467.216 288 480 259.296 480 240V48C480 12.784 451.296 0 432 0ZM448 239.808C447.808 247.2 444.896 256 432 256H48.192C40.8 255.808 32 252.896 32 240V48.192C32.192 40.8 35.12 32 48 32H431.808C439.2 32.192 448 35.12 448 48V239.808ZM128 192H352V224H128V192ZM384 192H416V224H384V192ZM384 128H416V160H384V128ZM320 128H352V160H320V128ZM288 160H256V128H288V160ZM224 160H192V128H224V160ZM160 160H128V128H160V160ZM64 128H96V160H64V128ZM64 192H96V224H64V192ZM384 64H416V96H384V64ZM320 64H352V96H320V64ZM288 96H256V64H288V96ZM224 96H192V64H224V96ZM160 96H128V64H160V96ZM64 64H96V96H64V64Z" fill="black"/>
</svg>
