<svg width="512" height="512" viewBox="0 0 512 512" fill="none" xmlns="http://www.w3.org/2000/svg">
<g clip-path="url(#clip0_15_11)">
<path d="M467 60C475.284 60 482 53.2843 482 45C482 36.7157 475.284 30 467 30C458.716 30 452 36.7157 452 45C452 53.2843 458.716 60 467 60Z" fill="black"/>
<path d="M497 181C505.284 181 512 174.284 512 166C512 157.716 505.284 151 497 151C488.716 151 482 157.716 482 166C482 174.284 488.716 181 497 181Z" fill="black"/>
<path d="M257 512C366.336 512 463.353 441.332 498.421 337.65C500.56 331.337 498.26 324.364 492.796 320.541C487.347 316.747 480.008 316.981 474.793 321.171C442.464 347.23 403.455 361 362 361C262.742 361 181 280.258 181 181C181 118.935 213.509 61.011 266.302 27.744C271.956 24.184 273.919 17.285 272.059 10.869C270.213 4.453 263.68 0 257 0C116.39 0 0 115.39 0 256C0 396.61 116.39 512 257 512Z" fill="black"/>
<path d="M287 121C311.814 121 332 141.186 332 166C332 174.291 338.709 181 347 181C355.291 181 362 174.291 362 166C362 141.186 382.186 121 407 121C415.291 121 422 114.291 422 106C422 97.709 415.291 91 407 91C382.186 91 362 69.814 362 45C362 36.709 355.291 30 347 30C338.709 30 332 36.709 332 45C332 69.814 311.814 91 287 91C278.709 91 272 97.709 272 106C272 114.291 278.709 121 287 121Z" fill="black"/>
</g>
<defs>
<clipPath id="clip0_15_11">
<rect width="512" height="512" fill="white"/>
</clipPath>
</defs>
</svg>
