<svg width="511" height="512" viewBox="0 0 511 512" fill="none" xmlns="http://www.w3.org/2000/svg">
<path d="M510.999 248.513C510.999 205.537 479.97 169.668 439.13 162.142C440.42 98.9811 378.988 50.1178 316.001 68.8651C296.93 28.4962 256.049 0 207.593 0C143.04 0 90.2432 51.3394 87.9078 115.334C36.9766 126.42 0 171.677 0 224.56C0 286.199 50.1418 336.341 111.781 336.341H423.171C471.596 336.341 510.999 296.938 510.999 248.513ZM350.468 361.98C342.582 358.037 332.988 361.232 329.044 369.122L297.107 432.997C291.761 443.688 299.642 456.11 311.378 456.11C317.236 456.11 322.875 452.875 325.673 447.28L357.61 383.405C361.554 375.516 358.357 365.924 350.468 361.98ZM494.187 361.98C486.299 358.037 476.706 361.232 472.763 369.122L440.825 432.997C435.48 443.688 443.36 456.11 455.096 456.11C460.954 456.11 466.594 452.875 469.391 447.28L501.329 383.405C505.272 375.516 502.075 365.924 494.187 361.98ZM206.75 361.98C198.863 358.037 189.269 361.232 185.326 369.122L153.389 432.997C148.043 443.688 155.924 456.11 167.66 456.11C173.517 456.11 179.157 452.875 181.955 447.28L213.892 383.405C217.835 375.516 214.639 365.924 206.75 361.98ZM63.0315 361.98C55.145 358.037 45.5508 361.232 41.6075 369.122L9.67006 432.997C4.32453 443.688 12.2051 456.11 23.9411 456.11C29.7986 456.11 35.4386 452.875 38.2361 447.28L70.1735 383.405C74.1168 375.516 70.9201 365.924 63.0315 361.98ZM254.656 417.87C246.769 413.927 237.175 417.124 233.232 425.012L201.295 488.887C195.949 499.578 203.83 512.001 215.566 512.001C221.423 512.001 227.063 508.765 229.861 503.17L261.798 439.295C265.741 431.407 262.545 421.815 254.656 417.87ZM398.375 417.87C390.487 413.927 380.894 417.124 376.951 425.012L345.013 488.887C339.668 499.578 347.548 512.001 359.284 512.001C365.142 512.001 370.782 508.765 373.579 503.17L405.517 439.295C409.46 431.407 406.263 421.815 398.375 417.87ZM110.938 417.87C103.05 413.927 93.4569 417.124 89.5136 425.012L57.5762 488.887C52.2307 499.578 60.1112 512.001 71.8473 512.001C77.7048 512.001 83.3447 508.765 86.1423 503.17L118.08 439.295C122.023 431.407 118.826 421.815 110.938 417.87Z" fill="black"/>
</svg>
