<svg width="84" height="54" viewBox="0 0 84 54" fill="none" xmlns="http://www.w3.org/2000/svg">
<path fill-rule="evenodd" clip-rule="evenodd" d="M2.91431 0V0.0056342L0 0.00578699C0.801942 3.51125 12.6361 6.91924 16.2617 8.05184C18.6957 8.81223 25.1773 10.615 26.8596 12.2481C28.6838 14.0192 28.7628 16.083 28.6393 18.3632C28.504 20.8571 28.4327 22.5446 30.3923 24.5084C30.7646 24.8817 31.1404 25.2524 31.5155 25.6234C35.1813 29.2485 36.6004 31.0529 36.6667 36.2123C36.6784 37.1266 36.8705 37.8115 37.1569 38.6748C37.7007 40.3139 37.3309 41.6671 35.8996 42.8232C33.1032 45.0819 30.2981 44.9697 26.8015 44.9608C26.5206 44.9602 26.2296 44.9609 25.9402 44.9484L25.7358 44.9486C22.8799 44.9486 19.4968 48.2047 17.5921 49.8778C16.0428 51.2388 14.5415 52.6447 12.7863 53.7926C12.7685 53.8043 12.7386 53.8265 12.7163 53.8488H68.3686V53.8444L69.6227 53.8488H71.283C69.5493 52.6437 67.9674 51.2551 66.3995 49.8778C64.495 48.2047 61.1117 44.9486 58.2558 44.9486L58.1476 44.9485C57.8232 44.9635 57.4978 44.9601 57.1901 44.9608C53.6935 44.9697 50.8884 45.0818 48.0921 42.8232C46.6606 41.6669 46.2908 40.3137 46.8347 38.6746C47.1212 37.8114 47.3132 37.1264 47.325 36.2123C47.3912 31.0529 48.8103 29.2485 52.4762 25.6234C52.8513 25.2524 53.227 24.8817 53.5994 24.5084C55.5589 22.5446 55.4876 20.8572 55.3524 18.3632C55.2288 16.083 55.3078 14.0191 57.132 12.2481C58.8144 10.615 65.2961 8.81223 67.7301 8.05192C71.5441 6.86049 82.7373 3.58243 83.9766 0.0739226C83.9842 0.0526442 83.9939 0.0251098 84 7.63959e-05L43.4572 3.8198e-05L2.91431 0Z" fill="#FFBF00"/>
</svg>
