<svg width="512" height="512" viewBox="0 0 512 512" fill="none" xmlns="http://www.w3.org/2000/svg">
<path d="M351.28 30.24C352.32 29.76 353.68 29.12 355.04 28.32C355.44 28.16 355.84 27.92 356.24 27.76C357.44 27.12 358.8 26.48 360.16 25.76C360.48 25.52 360.8 25.44 361.12 25.2C354.8 16.08 348.16 10.96 341.36 10.24C336.56 9.68 332.64 11.44 330.16 13.04C330.56 13.36 330.88 13.76 331.2 14.16C333.28 16.24 335.12 18.24 336.96 20.4C343.44 27.6 347.44 32.08 351.2 30.16L351.28 30.24ZM117.52 14.88C118.48 15.52 119.52 16.24 120.48 16.96C121.2 17.52 121.92 18 122.72 18.64C123.6 19.28 124.64 20 125.52 20.72C126.24 21.28 126.96 21.84 127.76 22.4C128.64 23.12 129.6 23.76 130.48 24.48C131.12 25.04 131.76 25.52 132.56 26C133.36 26.72 134.32 27.36 135.12 28.08C135.68 28.56 136.32 28.96 136.96 29.44C137.76 30.08 138.64 30.72 139.36 31.36C139.84 31.76 140.32 32.08 140.72 32.48C141.84 33.36 142.96 34.24 143.84 34.96C144.24 33.68 144.64 32.08 145.2 30.48C145.36 30 145.6 29.52 145.76 28.88C146.08 28.08 146.32 27.36 146.64 26.4C125.44 11.12 115.12 9.52 110.64 10.16C111.12 10.48 111.68 10.88 112.32 11.2C113.36 11.92 114.48 12.64 115.6 13.44C116.24 13.92 116.96 14.48 117.68 14.96L117.52 14.88ZM211.52 19.76C213.92 21.2 216.16 22.64 218.4 24.08C218.88 24.4 219.36 24.64 219.84 24.96C222 26.32 223.92 27.68 225.76 28.8C226.24 29.12 226.56 29.36 227.04 29.68C228.8 30.8 230.32 31.92 231.68 32.8C234 34.48 235.6 35.6 236.24 35.92C239.36 37.52 242.56 34.48 242.72 34.24C242.8 34.16 243.12 33.92 243.6 33.6C243.76 33.44 244 33.28 244.16 33.12C244.56 32.88 245.04 32.56 245.6 32.08C246 31.84 246.4 31.52 246.8 31.2C247.44 30.8 248.08 30.32 248.88 29.84C249.36 29.44 249.84 29.12 250.56 28.72C250.8 28.56 250.96 28.48 251.2 28.32C247.76 25.76 242.32 22.24 233.68 17.52C219.76 9.84 208.32 12.08 202.24 14.64C202.32 14.72 202.48 14.8 202.64 14.88C205.2 16.24 207.76 17.68 210.08 19.12C210.48 19.36 210.8 19.52 211.2 19.76H211.52ZM292.08 216.24C291.36 215.76 290.72 215.36 289.92 214.88C289.28 214.48 288.64 214.08 288 213.76C287.12 213.12 286.24 212.64 285.44 212C284.88 211.68 284.32 211.28 283.76 210.96C282.8 210.32 281.92 209.84 281.12 209.2C280.88 208.96 280.48 208.8 280.24 208.56C279.2 207.84 278.16 207.2 277.44 206.64L266.08 223.76C265.12 225.12 264.08 226.56 263.04 227.84H291.92V216.16L292.08 216.24ZM252.56 237.2C252 237.68 251.44 238.16 250.72 238.48C248.48 239.76 246.24 240.96 243.84 241.84C243.28 242.08 242.64 242.24 241.92 242.4C240.08 243.04 238.32 243.6 236.4 244.08C235.52 244.24 234.56 244.32 233.68 244.4C232.4 244.56 231.12 244.88 229.84 244.88V279.12H288.16V241.76C288.16 241.36 288.24 241.04 288.32 240.64L290.64 234.4H256.56C255.36 235.44 253.92 236.32 252.56 237.2ZM229.92 285.6H288.24V304.32H229.92V285.6ZM229.92 310.8H288.24V355.52H229.92V310.8ZM221.6 380.16V434.48H296.48V380.16C296.48 364.72 291.6 362.32 290.96 362.08H226.72C226.72 362.08 221.6 364.4 221.6 380.16ZM195.84 444.08C188.48 446.32 181.44 449.52 175.12 453.52L137.2 477.6H380.96L343.04 453.52C330.079 445.287 315.035 440.929 299.68 440.96H218.4C210.72 440.96 203.12 442 195.84 444.08ZM129.28 484.08H388.88V504H129.28V484.08Z" fill="black"/>
<path d="M340.16 179.68C340.16 179.68 325.6 167.52 315.12 159.52C307.36 153.44 295.36 152.64 291.36 152.56C285.76 153.84 280.56 154.72 275.84 155.36H275.68C273.68 155.6 271.92 155.76 270.16 155.92C269.6 156 269.04 156 268.4 156.08C266.88 156.16 265.36 156.32 264 156.32C263.28 156.4 262.72 156.4 262 156.4C261.2 156.4 260.4 156.48 259.76 156.48H255.76C255.12 156.48 254.64 156.4 254.24 156.4H253.12C253.12 156.4 252.72 156.32 252.48 156.32H251.6C241.12 156.32 230.8 155.36 221.12 153.6C189.84 154.64 174.96 172.32 174.88 172.48C156.16 191.6 130.88 222 132.72 230.32C132.88 230.72 133.04 230.96 133.6 231.2C141.68 234.32 158.08 222.8 175.36 202C175.36 202 175.44 202 175.44 201.92C175.518 201.743 175.626 201.58 175.76 201.44C176.375 200.832 177.2 200.485 178.064 200.47C178.928 200.455 179.765 200.774 180.4 201.36C181.04 202 181.28 202.88 181.28 203.76C181.52 203.76 184 208.24 201.92 227.2C208.8 234.48 217.2 238.32 226.72 238.48C236.24 238.64 227.28 238.56 227.28 238.56C237.04 238.48 246.08 235.04 253.2 228.72C256 226.4 258.48 223.52 260.64 220.24L273.76 200.32C274.24 199.6 274.96 199.12 275.92 198.96C276.72 198.8 277.68 199.04 278.4 199.52C278.48 199.6 286.4 205.28 296.88 211.84C319.12 225.68 335.6 232.96 343.84 232.08C359.52 230.4 360.4 222.72 360.48 222.4C360.56 221.28 361.28 220.08 362.48 219.68C363.6 219.2 364.96 219.44 365.84 220.16C369.04 223.04 370.64 222.88 371.04 222.8C371.44 222.72 371.76 222.4 371.92 222.16C368.32 205.84 340.4 180.08 340.08 179.68H340.16ZM419.36 9.84C418.8 8.64 416.4 8.16 415.44 8.08C412.48 7.76 409.28 8.4 406.08 10C401.04 12.56 391.44 17.36 381.6 22.32L367.28 29.44H367.2C367.2 29.44 367.12 29.6 367.04 29.6L366.08 30.08C361.04 32.56 356.88 34.64 354.16 36.08C353.28 36.48 352.24 36.8 351.36 36.96C351.12 37.04 350.88 37.04 350.56 37.04C350.24 37.12 349.92 37.2 349.52 37.2C349.28 37.2 348.96 37.12 348.72 37.12C348.4 37.04 348.16 37.04 347.84 36.96C347.2 36.88 346.56 36.72 345.84 36.48C345.6 36.4 345.44 36.32 345.2 36.24C344.4 35.84 343.44 35.44 342.64 34.88C342.56 34.88 342.56 34.8 342.56 34.8C341.76 34.24 340.88 33.68 340.08 32.96C339.92 32.72 339.68 32.56 339.44 32.32C338.88 31.76 338.24 31.28 337.6 30.56L336.88 29.84C336.32 29.28 335.76 28.64 335.04 27.92C334.88 27.68 334.64 27.52 334.48 27.28C333.68 26.48 332.88 25.52 332.16 24.72C329.28 21.44 326.32 18.08 323.12 15.2C318.48 11.12 314 8.96 309.52 8.56C299.92 7.84 281.36 16 258.64 31.12C251.76 35.68 247.04 39.28 247.04 39.28C246.72 39.6 246.24 39.92 245.76 40.32C245.68 40.4 245.52 40.48 245.36 40.56C244.96 40.88 244.4 41.2 243.92 41.44C243.76 41.52 243.68 41.6 243.52 41.6C242.88 41.92 242.16 42.24 241.36 42.4C241.2 42.48 240.96 42.48 240.8 42.56C240.16 42.64 239.52 42.72 238.72 42.8H238.08C237.6 42.8 237.12 42.72 236.56 42.64C236.32 42.56 236.08 42.56 235.84 42.56C235.12 42.32 234.4 42.08 233.52 41.68C232.88 41.36 230.96 40.16 228.16 38.24C220.96 33.2 207.36 24 194.16 17.36C185.68 13.2 178.72 10.64 173.36 9.92C165.6 8.96 158.8 14.48 153.6 26.48C151.44 31.12 150.16 35.68 149.52 38.48C149.12 40.16 148.88 41.12 148.88 41.2C148.72 42.24 147.92 43.28 146.8 43.6C146.4 43.76 146.08 43.84 145.68 43.84C145.6 43.84 145.6 43.76 145.52 43.76C144.84 43.6934 144.184 43.4747 143.6 43.12C143.36 42.88 118.08 21.92 102.56 12.64C96.16 8.8 94.08 8.56 93.76 8.56C92.88 8.56 92.64 8.8 92.64 8.8C92 9.6 93.12 14.08 95.44 17.92C95.44 17.92 130.8 72.24 147.68 98.4C164.72 124.8 189.92 141.28 222.48 147.2C227.04 148 231.92 148.64 236.88 149.2C242 149.6 247.04 149.84 252.24 149.84C252.64 149.84 269.04 151.12 290.48 146.16C318.24 139.92 355.92 122.96 378.4 77.52C389.92 54.24 413.92 22.64 415.68 20.4C420.48 13.2 419.84 10.56 419.52 9.92L419.36 9.84Z" fill="black"/>
</svg>
