<svg width="296" height="292" viewBox="0 0 296 292" fill="none" xmlns="http://www.w3.org/2000/svg">
<path d="M9.85893 0.409017H286.317C291.732 0.409017 295.943 6.13525 295.943 13.4976C295.943 15.1336 295.642 16.3607 295.342 17.9967C290.528 40.0836 261.348 53.5812 235.778 65.4427C221.038 72.396 207.501 78.5312 204.793 82.6214C200.883 87.9386 201.183 95.7099 201.484 103.072C202.086 116.161 202.387 128.84 193.362 142.747C192.159 144.383 190.955 146.428 189.752 148.473C179.825 163.198 175.613 169.333 175.313 191.829C175.313 198.782 174.109 203.281 173.207 207.371C172.605 209.826 172.304 211.462 174.41 214.325C180.427 221.687 185.841 221.687 197.874 221.687H201.484C213.818 221.687 223.745 234.776 234.876 249.5C239.689 256.044 244.803 262.589 250.218 267.906C254.429 272.405 255.332 280.585 252.023 286.312C250.218 289.584 247.21 291.629 244.502 291.629H51.6736C46.2587 291.629 42.0472 285.903 42.0472 278.54C42.0472 274.041 43.8521 269.951 46.2587 267.497C51.3727 262.18 56.1859 255.635 60.9991 249.5C72.1296 234.776 82.3577 221.687 94.3907 221.687H98.0006C110.334 221.687 115.448 221.687 121.465 214.325C123.571 211.462 123.27 209.826 122.668 207.371C121.766 203.281 120.562 198.373 120.562 191.829C120.262 169.333 116.351 163.198 106.123 148.473C104.92 146.428 103.415 144.383 102.513 142.747C93.1874 128.84 93.789 116.161 94.3907 103.072C94.6915 95.7099 94.9923 88.3476 91.0816 82.6214C88.3742 78.5312 74.8371 72.396 60.0967 65.4427C33.9249 53.1722 3.84243 39.2656 0.232538 15.9517C-0.970761 8.99837 2.63914 2.04508 7.75316 0.409017C8.35481 0.409017 8.95645 0 9.5581 0L9.85893 0.409017ZM258.34 26.5861H37.8356C46.2587 31.4943 56.7876 35.9935 66.414 40.4927C83.561 48.673 98.9031 55.6263 105.22 64.6246C114.546 78.1222 114.245 91.2107 113.643 104.299C113.343 111.662 113.042 119.433 116.953 125.159C118.457 127.613 119.66 129.249 120.562 130.476C134.1 150.518 139.815 158.698 140.116 191.42C140.116 194.283 140.718 197.146 141.319 199.6C143.726 211.053 145.832 219.642 134.4 233.549C122.969 247.455 115.448 247.455 98.3014 247.455H94.6915C90.48 247.455 84.1626 255.635 76.9428 265.043H219.835C212.615 255.635 205.997 247.455 202.086 247.455H198.476C181.028 247.455 173.808 247.455 162.377 233.549C150.946 219.642 152.751 211.053 155.458 199.6C156.06 197.146 156.661 193.874 156.661 191.42C156.962 159.107 162.377 150.518 176.215 130.476C177.117 128.84 178.321 127.204 179.825 125.159C183.736 119.433 183.435 111.662 183.134 104.299C182.532 91.2107 182.232 78.5312 191.557 64.6246C197.574 55.6263 213.216 48.673 230.363 40.4927C239.99 35.9935 250.519 31.0853 258.942 26.5861H258.34Z" fill="black"/>
</svg>
