<svg width="512" height="128" viewBox="0 0 512 128" fill="none" xmlns="http://www.w3.org/2000/svg">
<path d="M511.997 15.8362C511.997 -12.3091 397.358 5.63864 255.997 5.63864C114.63 5.63864 0 -12.3091 0 15.8362C0 34.4747 50.4595 59.6647 125.465 74.5891C89.2512 85.4953 64.0111 100.52 64.0111 117.467C64.0111 123.106 68.5401 127.936 74.1467 127.936C79.8123 127.936 84.3413 123.652 84.3413 118.034C87.2967 109.339 124.429 92.1795 180.46 83.0507C230.683 88.5475 281.356 88.5475 331.579 83.0507C387.574 92.147 424.65 109.177 427.576 117.464C427.576 123.103 432.146 127.673 437.735 127.673C439.077 127.676 440.406 127.415 441.647 126.903C442.887 126.391 444.014 125.639 444.963 124.69C445.913 123.742 446.665 122.615 447.178 121.375C447.69 120.135 447.953 118.806 447.951 117.464C447.951 100.517 422.696 85.4599 386.508 74.5862C461.567 59.6647 511.997 34.4777 511.997 15.8362Z" fill="black"/>
</svg>
